<mxfile host="app.diagrams.net" modified="2021-09-14T11:34:41.567Z" agent="5.0 (Windows NT 10.0; Win64; x64) AppleWebKit/537.36 (KHTML, like Gecko) Chrome/93.0.4577.63 Safari/537.36" etag="FhxmRGPYryRKi4XXs92d" version="15.1.0" type="github">
  <diagram id="cE48svmobiIv9-lK36uv" name="Page-1">
    <mxGraphModel dx="837" dy="697" grid="1" gridSize="10" guides="1" tooltips="1" connect="1" arrows="1" fold="1" page="1" pageScale="1" pageWidth="827" pageHeight="1169" math="0" shadow="0">
      <root>
        <mxCell id="0" />
        <mxCell id="1" parent="0" />
        <mxCell id="TLFa8Q_tuCB6w2O8qKk6-1" value="" style="shape=image;verticalLabelPosition=bottom;labelBackgroundColor=#ffffff;verticalAlign=top;aspect=fixed;imageAspect=0;image=data:image/png,iVBORw0KGgoAAAANSUhEUgAAAmcAAAFlCAYAAACukk+HAAAABHNCSVQICAgIfAhkiAAAAAlwSFlzAAALEgAACxIB0t1+/AAAADh0RVh0U29mdHdhcmUAbWF0cGxvdGxpYiB2ZXJzaW9uMy4yLjIsIGh0dHA6Ly9tYXRwbG90bGliLm9yZy+WH4yJAAAgAElEQVR4nOzdeZxcVZ3//9ep3vd9S3fSW3aSkBVIEBCEALJv32ERUVCU0YGvzvxmUBl1FOc7uI2johDHhdFBRCQYEUR2lARDB7J1urNvnd73fa3z++N2hybppKuqq7q6q97PxyOP6rp1761PYiLvx7nnc46x1iIiIiIiU4Mr2AWIiIiIyHsUzkRERESmEIUzERERkSlE4UxERERkClE4ExEREZlCFM5EREREppDIYBfgL5mZmbaoqCjYZYiIiIiMa8uWLY3W2qyxPguZcFZUVERZWVmwyxAREREZlzHm8Kk+02NNERERkSlE4UxERERkClE4ExEREZlCQmbOmYiIiEwNAwMDVFVV0dvbG+xSgi42NpaCggKioqI8vkbhTERERPyqqqqKpKQkioqKMMYEu5ygsdbS1NREVVUVxcXFHl+nx5oiIiLiV729vWRkZIR1MAMwxpCRkeH1CKLCmYiIiPhduAezEb78OSiciYiISMiJiIhg6dKlLFq0iJtuuonu7u7THq+rq+PWW2+lpKSEFStWsHr1atavXx+U2jXnTERERAJr3Tr/3u/uu8c9JS4ujq1btwJw22238cgjj/D5z39+zOOf+9znuPbaa7njjjt4/PHHATh8+DAbNmzwb90e0siZiIiIhLTzzjuPffv2nfL4K6+8QnR0NJ/+9KePf1ZYWMg//MM/TGaZxymciYiISMgaHBzk+eefZ/Hixac8Xl5ezvLly4NU4ckUzkRERCTk9PT0sHTpUlauXMmsWbO46667Tnt8tM985jOceeaZrFq1arLLBjTnTERERELQ6Lll4x0/44wz+N3vfnf8/cMPP0xjYyMrV64MeJ1jUTiTKW8i80g9mDMqIiJh7qKLLuKLX/wiP/7xj7nnnnsAjndxBoMea4qIiEhYM8bwzDPP8Prrr1NcXMxZZ53FHXfcwUMPPRSUejRyJiIiIoEVhMcYnZ2dXh3Py8vjiSeeCGRJHtPImYiIiMgUonAmIiIiMoUonImIiIhMIZpzJpPC3zt3iIiIhKqAjpwZYy4zxuw2xuwzxtw/xuefN8bsMsZsN8a8bIwpHPXZkDFm6/Cv4GxuJSIiIjLJAjZyZoyJAB4GLgGqgLeNMRustbtGnfYusNJa222MuQf4JvB3w5/1WGuXBqo+ERERkakokCNnZwH7rLUHrLX9wBPANaNPsNa+aq0dWeXtLaAggPWIiIhImCoqKmLx4sUsWbKEtWvXUltbe9rjnZ2d3HPPPZSWlrJ8+XJWrFjBT37yk0mpNZBzzvKBo6PeVwFnn+b8u4DnR72PNcaUAYPAf1hrn/F/iSIiIhJo67b4d+Lx3Su8WzfNWovb7ebVV18lMzOTL37xi/z7v/873//+9wHGPP6JT3yCkpIS9u7di8vloqGhgZ/97Gd+/X2cypTo1jTGfARYCXxr1OFCa+1K4Fbge8aY0jGuu9sYU2aMKWtoaJikakVERGSqO3ToEPPmzeOjH/0oixYt4ujR98aLzj//fPbt23fSNSPH9+/fz+bNm3nwwQdxuZyolJWVxb/8y79MSu2BHDk7Bswc9b5g+Nj7GGMuBr4EXGCt7Rs5bq09Nvx6wBjzGrAM2D/6WmvtOmAdwMqVK62f65dR1G0pIiLTzd69e3nsscc455xzKCoqOn782WefZfHixSedP3K8vLycM88883gwm2yB/Na3gTnGmGJjTDRwM/C+rktjzDLgUeBqa239qONpxpiY4Z8zgXOB0Y0EIiIiIqdVWFjIOeecc/z9hRdeyNKlS2lvb+cLX/jCuMdHfOMb32Dp0qXMmDFjUuoO2MiZtXbQGPNZ4AUgAviZtbbcGPM1oMxauwHnMWYi8FtjDMARa+3VwALgUWOMGydA/scJXZ4iIiIip5WQkPC+9yNzy0504vGFCxeybds23G43LpeLL33pS3zpS18iMTEx4DVDgBehtdY+Bzx3wrEvj/r54lNctxE4ebxRREREJMBmz57NypUreeCBB/j6179OREQEvb29WDs5M6imREOAiIiIyFTy3//93zQ1NR0Papdccgnf/OY3J+W7tX2TiIiIBJS3S1/4Q1FRETt37jz+/tChQ2Oed6rjycnJPProowGobHwaORMRERGZQhTORERERKYQhTMRERGRKUThTERERGQKUTgTERERmUIUzkRERESmEIUzERERCTmf+9zn+N73vnf8/aWXXsonPvGJ4+//8R//ke9+97vs3buXK6+8ktLSUlasWMGFF17IG2+88b57XXvtte/bBgrgq1/9KvHx8dTXH9990m87CGidMxEREQmodev8e7+7PVg27dxzz+XJJ5/k//7f/4vb7aaxsZH29vbjn2/cuJH//M//5IorruDb3/42V199NQA7d+6krKyM888/H4DW1la2bNlCYmIiBw4coKSk5Pg9MjMz+c53vsNDDz3k19+fRs5EREQk5KxZs4ZNmzYBUF5ezqJFi0hKSqKlpYW+vj4qKirYtm0bq1evPh7MABYtWsTHPvax4++ffvpprrrqKm6++WaeeOKJ933HnXfeyW9+8xuam5v9WrvCmYiIiIScGTNmEBkZyZEjR9i4cSOrV6/m7LPPZtOmTZSVlbF48WJ2797N8uXLT3ufX//619xyyy3ccsst/PrXv37fZ4mJidx5553813/9l19rVzgTERGRkLRmzRo2btx4PJytXr36+Ptzzz33pPOvu+46Fi1axPXXXw9AXV0de/fu5QMf+ABz584lKirqfVtCAdx777089thjdHR0+K1uhTMREREJSeeeey4bN25kx44dLFq0iHPOOYdNmzaxceNG1qxZwxlnnME777xz/Pz169fzi1/84vhjyieffJKWlhaKi4spKiri0KFDJ42epaamcuutt/Lwww/7rW6FMxEREQlJa9as4dlnnyU9PZ2IiAjS09NpbW1l06ZNrFmzhltvvZU333yTDRs2HL+mu7v7+M+//vWv+dOf/sShQ4c4dOgQW7ZsOWneGcDnP/95Hn30UQYHB/1St8KZiIiIhKTFixfT2Nj4vmUwFi9eTEpKCpmZmcTFxfHss8/yyCOPUFJSwurVq3nwwQd54IEHOHToEIcPH37ftcXFxaSkpPC3v/3tfd+TmZnJddddR19fn1/qNtZav9wo2FauXGnLysqCXUbI8ncb9GTxpN1aRET8q6KiggULFgS7jCljrD8PY8wWa+3Ksc7XyJmIiIjIFKJwJiIiIjKFKJyJiIiITCEKZyIiIuJ3oTKnfaJ8+XNQOBMRERG/io2NpampKewDmrWWpqYmYmNjvbpOG5+LiIiIXxUUFFBVVUVDQ0OwSwm62NhYCgoKvLpG4UxERET8KioqiuLi4mCXMW3psaaIiIjIFKJwJiIiIjKFKJyJiIiITCGacyYC/tmfSntFiYiIH2jkTERERGQKUTgTERERmUIUzkRERESmEIUzERERkSlE4UxERERkClE4ExEREZlCtJSGBN3QEBw9CtXV0NUFbjfExkJyMmRkQGYmxMcHu0oREZHJoXAmQVNdDS+/DG+/DX19pz83Ph7y86GwEJYsgTlzwKVxXxERCUEKZzLpurrg6afhr3+FqCg46yxYuBBmzYKkJCd09fZCWxs0NkJTE9TXQ1UVvP46vPQSpKbCddfB2WeDMcH+HYmIiPiPwplMql274Gc/cwLa2rVw6aWQmHjyeTExkJLiBLbR+vpg507485/h5z+HjRvhnnsgLm5y6hcREQk0hTOZFNbC88/Dhg2Qlwf33QczZ3p/n5gYWLECli1zRt5+/Wv4/vfh3nsV0EREJDRo1o4E3NAQ/PKX8Pvfw6pVcP/9vgWz0VwuOP98ZzvLQ4fgxz92GglERESmO4UzCaiBAXjkEXjzTbjiCrjzTmf0y1+WLYPbboPdu535aCIiItOdwpkEzOAgrFsH27fDLbfA1VcHZvL+uec6DQXr1zsNBCIiItOZ5pxJQFjrTNgfCWYf/GDgvssYuP12+Ld/gyefhL//+8B913Sybsu6Cd/j7hV3+6ESERHxhkbOJCD++EcoK3OWuwhkMBuRng4XXwzbtsGxY4H/PhERkUBROBO/27oV/vAHOOccZ6mMyXLRRc58tuefn7zvFBER8TeFM/Grzk6nM3PWLPjIRyZ3gdiEBLjgAmfErr5+8r5XRETEnxTOxK9+8xvo6YGPfcxZ/X+yXXwxREQ420KJiIhMRwpn4jfl5bB5M1x+ubMPZjCkpDjLa2ze7CzjISIiMt2oW1P8wlp45hnIzITLLvPiwjfemPiXn3/++96uWeNspr59+8RvLSIiMtk0ciZ+sXMnHDkCH/5wcB5njjZ/PqSlOftuioiITDcKZzJh1jpLZ2RkOB2aweZyOXWUl2tZDRERmX4CGs6MMZcZY3YbY/YZY+4f4/PPG2N2GWO2G2NeNsYUjvrsDmPM3uFfdwSyTpmYPXvg4EHncWZERLCrcaxZ44TGJ54IdiUiIiLeCVg4M8ZEAA8DlwMLgVuMMQtPOO1dYKW1dgnwFPDN4WvTga8AZwNnAV8xxqQFqlaZmL/+FeLjYfXqYFfynuxsZ3P19euDXYmIiIh3Ajlydhawz1p7wFrbDzwBXDP6BGvtq9ba7uG3bwEFwz9fCrxorW221rYALwLeTDOXSdLTA+++CytXBn+u2YmWLXPmndXUBLsSERERzwUynOUDR0e9rxo+dip3ASNru3t7rQTJli3OkhVr1gS7kpMtW+Y82vz974NdiYiIiOemREOAMeYjwErgW15ed7cxpswYU9bQ0BCY4uS0Nm2CnBwoKgp2JSfLy4O5c+Hpp4NdiYiIiOcCGc6OATNHvS8YPvY+xpiLgS8BV1tr+7y51lq7zlq70lq7Misry2+Fi2caG2HfPmeu2WRu0+QpY+D66+HVV6G5+RQnDQ05w387dzq/Ibd7UmsUERE5USDD2dvAHGNMsTEmGrgZ2DD6BGPMMuBRnGA2ejfEF4C1xpi04UaAtcPHZArZscN5Xb48uHWcznXXweAg/OlPJ3xw5AjcdRekpzsT5n7wA/jSl+ALX3B2bhcREQmSgIUza+0g8FmcUFUBPGmtLTfGfM0Yc/Xwad8CEoHfGmO2GmM2DF/bDHwdJ+C9DXxt+JhMITt3Ol2ROTnBruTUVq6ErCx47rnhA4OD8JWvOM87f/UruPFGePxx+Md/dHZqT0yEH/8YfvpTZ1RNRERkkgV0+yZr7XPAcycc+/Kony8+zbU/A34WuOpkIvr7YfduOO+8YFdyei4XXHqpM3I2dOQYEbfd7Kz9ceut8O//DoXDS+t1dDiBbc0aJ8k9+yzExjrnTcVntiIiErKmREOATD979jhdmosWBbuS8X34w850srIldzrrfvzqV/C///teMBstIgKuuspJdG+8Aa+9Nun1iohIeFM4E5/s2OGsazZ3brArGcfgIGs3P4iLIZ6PvgbKyuC228a/7tpr4cwz4ckn4ejR8c8XERHxE4Uz8Zq1znyz+fOn3sKzo8W3HIOLLiLje//K2dkHeW7Wp5yiPeFywR13QFwc/Pa3zm9aRERkEgR0zpmEpqYm5zHhhz4U7EpOrXjLbznvf+9hYLCXv3z8l2Q1zWbDBvjOdyApaYwL3jg5tN19fiVceSX85jewfbszkiYiIhJgCmfitX37nNc5c4Jbx3FvvHH8x4Sues5550eUHnmV+vR5vHrhl2jrn8WCvnfZwDJ2P7OLlYWNnt/7ggvg9dfhd79zJthNlZ3dRUQkZOmxpnht/36nkTF/Cm2oFdfTzKqtP+Hv/nAbhVVv8vaSu/j9pT+iLcWZ9F+Y3kFs5CC7a1O9u3FEhLOSbV2dM19NREQkwDRyJl7btw9KS51pWcEU09dOfm0ZRUf/QvHRN4hwD7K36GLePvOTdCbmvu/cCBfMyWmjss7LcAaweLGzmNsrr8DZZ/upehERkbEpnIlXurqguhpWrQrcdxj3EGlth0jpOEp0fxfRA51ED3QR3d9JTH8Hcb2tpLYfIamrFoDe6CR2zbmWXXOvpS155invOz+nlR3HMmjuiiE9oe+U553E5YILL4QnnoCDB6G4eKK/RRERkVNSOBOv7N/vvM6e7ecbW0tOYzmLKn/LrOq/ETXYc9Ip/ZHx9MUk0xuTQl3mGVSWXkF17nLqM+ZjXeP/VZ6X2wrA7rpUVpfUeVff6tXwzDPw8svwiU94d62IiIgXFM7EK/v2OdOwior8d8+4nmY+uOn/MbNmM33RiewtvoTarMW0pBTTF51Ef3QCA5HxWNfEJuPnp3aRGNNPZa0P4Sw2Fs4919lF/cYbIdWHx6MiIiIeUDgTr+zfD7NmQXS0f+6XV/cuH/rr14ge6GTT8r+nYvZVDEbF++fmJ3AZmJfTxu66VKz1YVemCy5wRs42b4a1awNSo4iIiLo1xWNDQ3D4MJSU+Od+Ofve5PJX/5m+6ETWX/oIOxb8XcCC2Yh5Oa20dMdQ3xHn/cU5Oc6Q4ebNfq9LRERkhMKZeKymxtlP0x+PNNOqy7ns4SvpjM/hD5f8gJa00onf1APzc1sAqPR2SY0Rq1Y52znV1vqxKhERkfconInHDh92XmfNmth9ono7uPSHVzIYFcdzF32L3tjJm7+VndRLWnwfu31ZUgOccGaMRs9ERCRgFM7EY0eOOPPis7Mndp+zf/fPJDUf5qVPPUVnYp5/ivOQMc6jzd11Kbh92S4zJQXmzYO339Z+myIiEhAKZ+Kxw4dh5syJLT47o+JlFr7xCNsv/jx1pWv8V5wX5ue20NkXzbHWBN9usGoV1Ne/N5QoIiLiRwpn4pGhIaiqmtgjTddAH+f/6pO05syl7Oqv+684L83LaQPwfiunEcuWOQl161Y/ViUiIuJQOBOP1NY6zQCFhb7fY8Fff0Jy40HevPkHDEX70C3pJ+kJfWQndfveFJCQ4OxftWOHfwsTERFB4Uw8NPIEz9dwFtHfzbLnvkH1nPM5tuAS/xXmo3k5bexrSMHt9vEGixc7Q4ktLX6tS0REROFMPHL4MMTE+N4McMarDxPfXkvZNQ/6sPqr/83ObqNnIJJjbT7OO1uyxHnV6JmIiPiZwpl45OhR35sBIvq7WfrCQxxdeCm1c87zf3E+mJPlzDvbV5/i2w1ycyEzE7Zv92NVIiIiCmfiAWvh2DEoKPDt+tmbf01sVxPvXv5F/xY2ARmJfaTF97K3Ptm3GxjjPNqsrIT+fv8WJyIiYU3hTMZ1+DD09kJ+vg8XW8sZr/2QpvzFU2bUbMSc7Hb2NaT4vlzZkiVOl8Tu3X6tS0REwpvCmYxr5MmdL+EsZ/9GMo9uZdcHPzMl5pqNNjurjbaeGBo7Y327wZw5EBUFFRX+LUxERMKawpmMa2TOuy/h7IzXHqYvLoW9Z93m36L8YHa2M+9sr6/zzqKiYPZsjZyJiIhfRQa7AJn6tm935r7HnjjA9MYbp70utreV4i2/Zdecaxnc/E7gCvRRXko3CdED7GtIYU1pnW83mTsXfv976OiAdesmXtTdd0/8HiIiMq1p5EzGtX27b6NmJUdeJcI9yO7SD/u/KD9wGSjJbGd/g49NAQDz5zuve/b4pygREQl7CmdyWr29Tu7wpVOz9NDLNKcU0Zxa4v/C/KQkq53a9ni6+nwcRC4sdIYU9WhTRET8ROFMTmvXLnC7vR85S+iqI69hB/sLPzTlGgFGK81sB+BgY5JvN4iIcOadVVb6sSoREQlnCmdyWr42A5QefgWA/UUX+bki/yrM6MAYy4HGCT7arKuD1lb/FSYiImFL4UxOa/t256mdt9s2zT70MvUZ82lP8nHl2kkSG+WmILVrYuFs3jznVaNnIiLiBwpnclrl5bBggXfbNiW3V5HZstd5pDkNlGS2c6AxyfdN0AsKIC4O9u/3a10iIhKeFM7ktHbtgoULvbum8NhGAA7OnFo7ApxKSWY7fYORVPu6CbrLBcXFCmciIuIXCmdySu3tzobnZ5zh3XUzq9+iOaWIzsS8wBTmZyVZTlPAhB5tlpZCdTX09PipKhERCVcKZ3JKI7sSeTNyFjXQTV79No7OOCcwRQVAVmIviTH9vndsApSUODvEHzzov8JERCQsKZzJKe3a5bx6M3KWX1NGhHuQI/mrA1NUABgDhemdHG5O9P0mxcXOjfRoU0REJkjhTE6pvBxiYpzc4alZ1Zvoi0qkNmtR4AoLgKKMDqrbEugb9PGfRFycs97IgQP+LUxERMKOwpmc0q5dzhJeEREeXmDdzDr2FlV5q7Cu6bVta2FGB9Yajk5k9KykxAlnPrd9ioiIKJzJaeza5d0jzYyWfcT3NnMkf/rMNxtRlNEJwKHmCc476+2Fmho/VSUiIuFI4UzG1NkJhw971wwwo+5dAKryVgWoqsBJiesnNa6Pw00TDGegeWciIjIhCmcyppFOTW9GzmbUbaU1aSY9cRmBKSrAijI6ONQ0gcea2dmQmKiOTRERmRCFMxnTSKempyNnxj1Ebv12anKWBq6oACvM6KC+I57ufk8n2Z3AGJg1C44c8W9hIiISVhTOZEy7dkF09HtP6saT3rqfmIFOqqdxOBuZd3Z4IvPOCgudxWj7+/1UlYiIhBuFMxlTZSXMmQORHjZdjsw3q8mevuFsVnoHAEcm8mizsNDp1qyq8lNVIiISbhTOZEwVFc6G555y5psV0B2fGbiiAiwxZpC0+F6OtkwwnIHTTSEiIuIDhTM5SV+f03A4f75n54fCfLMRs9I7qWrxcQN0gLQ0SErSvDMREfGZwpmcZN8+58mcpyNnx+ebTeNHmiMK0rqo7Yin39edAkaaAjRyJiIiPlI4k5OMLKPh6chZbsNOAGqzlwSooskzM60Taw3HWicwelZY6CxEq6YAERHxgcKZnKSy0nmdN8+z87Mbd9EVl0FXfHbgipokM9O6ACY+70xNASIi4iOFMzlJRYXzZC7Bw8GjrKYK6jMWOI/0prmMhF7iogY5OpF5Z2oKEBGRCVA4k5NUVno+3yymr53UjirqM73Y52kKM8Z5tDmhkbPUVKcpQOFMRER8ENBwZoy5zBiz2xizzxhz/xifn2+MeccYM2iMufGEz4aMMVuHf20IZJ3yHrfbCWeezjfLanImqNVneLHuxhRXkNbJsZYEhtw+jgQaAzNnwrFj/i1MRETCQsDCmTEmAngYuBxYCNxijDlxeOUI8DHg8TFu0WOtXTr86+pA1SnvV1UF3d2ej5xlN1ZgMTRmeJjmpoFZ6V30D0Wwtz7Z95vk5zs7BQwN+a8wEREJC4EcOTsL2GetPWCt7QeeAK4ZfYK19pC1djvgDmAd4gVvOzWzm3bRklLEQFR84IqaZPmpzjZOO46l+36TggIYHIS6Oj9VJSIi4SKQ4SwfODrqfdXwMU/FGmPKjDFvGWOu9W9pciojnZoejZxZS3ZTZcjMNxuRl9KNMXbi4Qz0aFNERLzmUTgzxjxtjLnCGDOZDQSF1tqVwK3A94wxpWPUdfdwgCtraGiYxNJCV0WFs8h9Vtb45yZ3HiO2r436zNCZbwYQFWHJTuph50TCWW4uRERoOQ0REfGap2HrRzghaa8x5j+MMZ6sgHUMmDnqfcHwMY9Ya48Nvx4AXgOWjXHOOmvtSmvtyixP0oSMa6RT05NVMbIaQ68ZYER+Shc7q9N8v0FkJOTlKZyJiIjXPApn1tqXrLW3AcuBQ8BLxpiNxpiPG2OiTnHZ28AcY0yxMSYauBnwqOvSGJNmjIkZ/jkTOBfY5cm1MjEVFZ7PN8ts2cegK5qWlKKA1hQMM1K72deQQk9/hO83yc/XY00REfGax48pjTEZOJ2VnwDeBf4LJ6y9ONb51tpB4LPAC0AF8KS1ttwY8zVjzNXD91xljKkCbgIeNcaUD1++ACgzxmwDXgX+w1qrcBZgzc1QX+95p2ZGy16aU4uxrsjAFhYEM1K7sNZQUZvq+03y86GlBbq6/FeYiIiEPI/+q2qMWQ/MA34JXGWtrRn+6DfGmLJTXWetfQ547oRjXx7189s4jztPvG4jsNiT2sR/RpoBPBo5s5aMln0cKvhAQGsKlvxUJ1DtOJbO8llNvt1kpCmgqsrzvbBERCTseTrk8ZPhoHWcMSbGWts3PGlfQoA3nZoJrceI62ujKW1OYIsKkqzEHmIiByfWFDC6Y1PhTEREPOTpY80Hxzi2yZ+FSPBVVEBMDBQVjX9uxtGtADSlzQ5sUUES4YIFea0TawpITna2cVJTgIiIeOG0I2fGmFyctcnijDHLgJEevmQgdFYdFcAJZ3PnOitAjCfj6FYshua0k1Y4CRmLZrTw2p48329gDMyYoaYAERHxyniPNS/FaQIoAL476ngH8MUA1SRBUlkJy5d7dm5G1VbakvJDameAEy2a0cyv/jaH1u5oUuP7fbvJjBmwcSNY69n6JCIiEvZOG86stY8BjxljbrDW/m6SapIg6O2Fgwfhtts8Oz/j6FYaQ/SR5oiFeS0AVNamck5JvW83ycuDvj6nazN9AvPXREQkbIz3WPMj1tpfAUXGmM+f+Lm19rtjXCbT0N694HZ71qkZ1dNGSsN+dp95YeALC6L5ua3ABMPZjBnOa3W1wpmIiHhkvIaAhOHXRCBpjF8SIkY2PPekUzOjajtAyHZqjijO7CAqYojKiax1ljc8Z62m5vTniYiIDBvvseajw6//NjnlSLBUVDhToubOHf/c9zo1Q7cZACAywjInu21i4Swx0enaVDgTEREPeboI7TdxltPoAf4ELAE+N/zIU0JAZSUUFkK8B/P706t30puQTndcZuALC7L5uW2UT2Q5DXBGz6qrvbpk3ZZ1E/tOP/FHHXevuNsPlYiIhA9P1zlba61tB67E2VtzNvD/BaoomXwVFZ5v25RWXU5L3hlh0X24ILeF/Q3JDAxN4Peal+eMnFnrv8JERCRkeRrORkbYrgB+a61tC1A9EgRDQ7B7t+fbNqXVlNMy44yA1zUVzI3s2VEAACAASURBVM9tZdDtYn9Dsu83mTHDaYdtafFfYSIiErI8DWfPGmMqgRXAy8aYLKA3cGXJZDpyxMkOnoycxbdWE9PdSvOMRYEvbAoY3bHps5GmAC8fbYqISHjyKJxZa+8H1gArrbUDQBdwTSALk8njTadmWk05QNiMnM3LdQaJJxTORpbTUFOAiIh4wNONzwHm46x3Nvqa//FzPRIEI+HMk8ea6dWjwlldRQCrmhqSYgfIT+2komYCTQGJic4emwpnIiLiAU+7NX8JlAJbgaHhwxaFs5BQWQmZmc6v8aRVl9OTlEVvUhYQ+uEMnEebExo5A2f0bJIea7qtm7rOOqraq6jprMFlXMRExpAem878zPkkRCeMfxMREQkaT0fOVgILrVW7WSjyrlNzZ9jMNxsxP7eNX741Z2LbY+bkQFlZQPfYbOtt482jb/LXI3+lqacJAIPB8t4/W4OhJK2EDxZ9kJUzVuIynk47FRGRyeJpONsJ5AJ6LhNirHXC2Q03eHZyWs0u9pxzR8Drmkrm57bS3htNbXsceSk9vt0kJwe6u6Gjw1mU1o8Ghgb4074/8af9f2LQPci8jHlcMecKZqXOIi8xD4Ohf6if6o5qdjbs5J2ad/jpuz/lhX0vcP2C6zkjOzzmD4qITBeehrNMYJcxZjPQN3LQWnt1QKqSSdPYCM3Nno2cJbQcJbq3I2yaAUaM7tj0OZzl5jqvdXV+DWf7mvfxP9v+h7quOlbNWMWVc68kNzH3pPPiXHGUppdSml7KVXOvoqy6jA27N/D9zd/n4pKLuX7+9US4IvxWl4iI+M7TcPbVQBYhweNNp+b7mgHCyOhwduE8HwePR4ezOf7Zk/T1w6/zxM4nSI9L576z72Nh1kKPrnMZF2fln8Wy3GU8VfEULx14iQMtB/j0ik+TEpvil9pERMR3ni6l8TrOzgBRwz+/DbwTwLpkknjTqZkWpuEsP7WLxJj+iTUFpKdDZCTU1k64niH3EI/veJzHdzzOwqyFPHDeAx4Hs9GiIqK4ZdEtfHL5JznWfoxvb/o2LT1aKFdEJNg8CmfGmE8CTwGPDh/KB54JVFEyeSornf00Z80a/9zU2gq6k3PoS0gPfGFTiDF+6Nh0uSA72xk5m4Ah9xC/2PoLXj/8OpeUXMJnVn2GuKi4Cd1z5YyV3HfOfbT3tfOdTd+huad5QvcTEZGJ8bRV6zPAuUA7gLV2L5AdqKJk8lRUwLx5TnYYT2ptJa25nuzxFHrm57ZNfDmN3NwJhTO3dfOLrb9gc/Vmrpt/HTcuvNFv3ZalaaXcd/Z9dPR38N1N36Wzv9Mv9xUREe95+v/sfdba/pE3wwvRalmNEODxMhrWklpTEcbhrJUjzUl09XmzbvMJcnKgocHZzNRL1lp+uf2XbK7ezLXzr+Wy2Zf5XscplKSVcO/Z99LS28KjZY8y6B70+3eIiMj4PP0vzevGmC8CccaYS4C/B/4QuLIkENate//7vj5nX83OzpM/O1FsZyOx3S205oRvOAPYU5fCsllNvt0kJwfcbieg5Z7cUXk6z+17jo1HN3LFnCu4fPblvn2/B0rTSrl9ye38fOvPeWLnE9y2+DZMgNZlExGRsXk6cnY/0ADsAD4FPAc8EKiiZHKMPGHzJCek1O0GCOuRM5jgHpujOza9sPnYZjbs3sDZ+Wdz1dyrfP9+D51TcA6XlV7GX478hb8c+UvAv09ERN7Po5Eza63bGPMM8Iy1tiHANckkGdnqMS9v/HNTaysBaMudF8CKpq7ZWW24jHti4Swnx3mtrYUzz/TokkOth3hs22PMTp/N7Utun7RRrGvmX8PhtsM8Wf4kczPmjrl2moiIBMZpR86M46vGmEZgN7DbGNNgjPny5JQngVRb63QiZmWNf25qbSWDUbF0pnvQ1hmCYqLclGR1TCycxcc7G6B7OHLW1d/Fui3rSI5J5p6V9xAVEeX7d3vJZVx8bOnHiI6I5qfv/lTzz0REJtF4jzU/h9Olucpam26tTQfOBs41xnwu4NVJQNXWOsEsyoP/5qfWVtKWMxcbxqvIz89ppWKiHZs5OR6FM2stj217jNbeVu5efjeJ0YkT+14fpMamcvuS2znSdoQ/7NYUUxGRyTJeOLsduMVae3DkgLX2APAR4KOBLEwCr6bGs0eaMLyMRk54PtIcMS+3lb31KbjdE7iJh8tpvHTgJbbVbeOGBTdQnFY8gS+cmGV5yzh35rm8sP8FDrceDlodIiLhZLxwFmWtbTzx4PC8s8l7xiJ+NzQE9fXvTYM6HddAH0mNB8O2GWDE3Ow2egciOdoygVGsnBxn8/OurlOesq12G+sr17M0dykXFV/k+3f5yU0LbyIpJolf7fgVQ27vlwERERHvjBfO+n38TKa4xkYnoHkycpbSsA+XdYd9OJuX2wbA7roJ7D85uilgDL2Dvdy+/nYSohMmtQHgdOKi4vi7M/6OI21HeO3Qa8EuR0Qk5I0Xzs40xrSP8asDWDwZBUpg+NKpGfbhLGdkrbPALafxr6/8Kzvqd3DHmXcEZZ7ZqazIW8GirEX8fvfvtb2TiEiAnTacWWsjrLXJY/xKstbqseY0NjJw48kaZ8eX0cieG8CKpr6c5B6SY/vZXTuBkbPMTGevrDHC2V/79/GdTd/h0ys+zaLsRROo1P+MMdyy+Bbc1s3vKn4X7HJEREKafzbmk2mnthZSUiDOgz2zU+p205maz2Ds1BnJCQZjYG5OK7snMnIWEeG0yJ7wWLPXDvCJ1v+hMLWQb6391gQrDYzM+EzWlq6lrLqM/S37g12OiEjIUjgLUzU1nu8glFK3l7ac8B41GzEvp21ic85gzI7NBzv/yO6hOh698tEp9TjzRGtL15ISk8Jvy3+L206kbVVERE5F4SwMWesM3Hgczur3KJwNmze8AXpP/wTWexvZAH14TY7tA1U81PkCH407h7Wla/1UaWDERsZy7fxrOdh6kLLqsmCXIyISkhTOwlBbG/T2etYMENPVTGxXM23ZcwJf2DQwN9vp2NxbP4HRs9xcGByEpibc1s3dbb8izZXAd5Nv8lOVgXVOwTnMTJ7J+sr1DAwNBLscEZGQo3AWhkY6NT0ZOUuu3wtAu8IZ4P/lNH7Rs4m/DRzk20k3kOGauo8zR3MZFzcsvIHmnmbeOPxGsMsREQk5CmdhyKtOzbo9ALTqsSYAc4ZHznZPZBun4T/4loaj3N+xnnOjSrk97hx/lDdpFmQuYF7GPJ7f9zx9g33BLkdEJKQonIWh2lqIjYVUD/JFcv1e3MZFR2ZJ4AubBhJiBilI62TPRB5rJiZCQgJfTnybJncnP0y5ZUosNuuta+ZfQ0d/B68ceiXYpYiIhBSFszA00qnpSR5Iqd9LZ0Yh7sjowBc2TczLaZ3YyBmwbX4qP8qv5p74C1gaNdNPlU2u0rRSFmcv5s/7/0z3QHewyxERCRkKZ2Gors6bZTT2hP3isycaWU7DWt+ut9by2Q+0k95r+FrS1f4tbpJdM+8auge6eenAS8EuRUQkZCichZmeHmht9axTE2tJqd+rTs0TzM1po60nhoaOWJ+uf7x3M39N6+D/vWRJn8iSHFPAzJSZLMtdxisHX6FnoCfY5YiIhASFszDjTTNAXEc90b0dtOUonI02ssemLzsFtLt7+Kf2p1jVn8Wd7wL19X6ubvJ9eM6H6Rns0dwzERE/UTgLM96Es5ThTk091ny/iSyn8fXOP1Ln7uCHkVfjspy0jdN0NCtlFouzF/PygZfpHewNdjkiItOewlmYqal5b3vH8aQMr3GmkbP3m5XeSUzkoNdNAfsHG/ivrlf4eNwazspa6nRkjLEB+nR0xZwr6Bro4vVDrwe7FBGRaU/hLMzU1kJ2thPQxpNSt4ehiCg60wsDX9g0EuGyzM5u93o5jS90rCfKRPBg0jUQHQ3p6SHxWBOgOK2YhVkLefHAi/QP9Qe7HBGRaU3hLMx4t6fmXjoyS7ARkYEtahqal9Pm1cjZxv79/LZ3C/+csJa8iOFQl50dMiNnAJfPvpyO/g42VW0KdikiItOawlkYGRx09tv2NJwlq1PzlObltLK/IZmBofEXi7PW8o/tvyXPlcI/JYza2Dwnxwlnvq7JMcXMSZ9DUUoRL+1/Cbd1B7scEZFpS+EsjNTXg9vt4TIabrezjIa2bRrT3Jw2Bt0uDjYmj3vuU73v8NbAQR5MuoYEV8x7H+TkODvQd3QEsNLJY4xhbela6rvr2Va7LdjliIhMWwpnYcSbTs2E1mNEDvRq5OwURpbT2DNOx2afHeBfOp5mcWQ+d8Stfv+HIxugh9CjzaW5S8mMz+TPB/4c7FJERKatgIYzY8xlxpjdxph9xpj7x/j8fGPMO8aYQWPMjSd8docxZu/wrzsCWWe4qKlxXj1aRmOkU1PhbEyeLqfxcNdrHBxq5NvJNxJhTvjnFoLhLMIVwcXFF3Og5QD7mvcFuxwRkWkpYOHMGBMBPAxcDiwEbjHGLDzhtCPAx4DHT7g2HfgKcDZwFvAVY0xaoGoNF7W1ToNgTMz45x5f40yPNceUntBHRkLvaZsCmt1dfL3zOS6LOYO1MSf+1cf5HyMyMqTCGcCamWtIiErgxf0vBrsUEZFpKZAjZ2cB+6y1B6y1/cATwDWjT7DWHrLWbgdOnD18KfCitbbZWtsCvAhcFsBaw4K3nZqDUbF0peYHtqhpbF5u62mX0/h65x9ptz18K+mGsU9wuZwF50IsnMVExnBB0QVsq9tGXWdo/d5ERCZDIMNZPnB01Puq4WOBvlbG4HZ7H87as2Y7AULGdLrlNA4NNvJw12t8PG4Ni6JO81c3Jydk1job7cKiC4lwRfDiAY2eiYh4a1r/l9cYc7cxpswYU9bQ0BDscqa0o0ehv9/DTk2cx5p6pHl6c3NaqW2Pp70n6qTPvtr5LBG4+GrSVae/yUg4c4fW0hPJMcmsLljNpqpN1HeFXvgUEQmkQIazY8DMUe8Lho/57Vpr7Tpr7Upr7cosT/YjCmOVlc6rJyNnZmiQpMYDagYYx7yckaaA94+e7Rw4xv/0vMU/JFxIQcQ4UyVzcmBoCJqaAlVm0FxccjFD7iF+uPmHwS5FRGRaCWQ4exuYY4wpNsZEAzcDGzy89gVgrTEmbbgRYO3wMfFRRYXz6kk4S2w+QsTQgEbOxnGq5TQe6Pg9ySaW+xM9mCYZgh2bI3ITc1mSs4SH336Y7oHuYJcjIjJtBCycWWsHgc/ihKoK4Elrbbkx5mvGmKsBjDGrjDFVwE3Ao8aY8uFrm4Gv4wS8t4GvDR8TH1VUQEICJCWNf+7xTk2NnJ1WaVY7LuN+33Iam/r38/u+bfxz4lrSXQnj3yQ723kNwXAGcEnJJTT3NPOr7b8KdikiItNGQDdNtNY+Bzx3wrEvj/r5bZxHlmNd+zPgZ4GsL5xUVjqjZmb83Ya0xpmHYqLcFGV0Hm8KsNZyf8d6clzJ3Bf/Ic9ukpQEcXEhG85mp89mae5Svv+37/PJ5Z/EePIXUEQkzE3rhgDxXEWFd52a/bFJ9CTnBLaoEDAvt/X4yNkLfeW80b+Xf0388Pu3aTodY0K2YxOcLZ3uO/s+yhvKeeXgK8EuR0RkWlA4CwNNTc6G5151ambP8WyYLczNy2ljb30Kg0NuvtDxDMURmXwy/jzvbpKdHbIjZwA3L7qZrPgsvr/5+8EuRURkWgjoY02ZGrzp1ARIqd9DffHZgStoCnujf+97b7rfGPf8+rQouvsXc/vRP7M15ih3xq0h2nj5zyo3FzZvdtY6CUGxkbF8asWn+MZfvsGBlgOUpJUEuyQRkSlNI2dhwJtOTddAH0lNh2jLVqemJ3KynQ1Ln68eoMCVyqqoIu9vMtIUEMJr9d2z6h4iXBFaVkNExAMKZ2GgogJiYyEjY/xzkxv2Y6zVMhoeyslywllbfSHXxi7F5cuj4JHlNGpr/VjZ1DIjaQY3LbyJn777Uzr7O4NdjojIlKZwFgYqK2HePM92Ykqp14bn3ohPboCYNlKalrMocoZvNwnx5TRG3Hv2vbT3tfPY1seCXYqIyJSmcBYGKipg/nzPzk0dXuOsVeHMI6/274asXSQ3Lfd9mYjYWEhNDdmOzRHnFJzDWfln8YPNP8BtQ2u7KhERf1I4C3E9PXDoECxY4Nn5KXV76E7OYSAuZfyTw1yX7eOFvl2kZR+mta54YjcL8Y7NEfeedS+7m3bz5/1/DnYpIiJTlsJZiNuzB6z1LpypGcAzL/Ttood+VszopKMzhc6uRN9vlpMTFuHspjNuIjcxl+//TctqiIicisJZiBvp1PT0sWZK3W7NN/NAi7ubV/p2c1ZUEQtmODuL1db5OOcMnHDW1RWSG6CPFh0RzT0r7+H5fc+zu3F3sMsREZmSFM5CXEWF0wgw14O8Fd3dSnxHvcKZB57r24Eby1WxS8jLOQZAdW2+7zccWedkd+gHlk+t+BTREdFaVkNE5BQUzkJcZSUUFztzzsczsqemmgFOr26onb/27+e86NlkuZJIS20mOrqXmjo/hLORFYNDWE5iDjcvuplfbPsFbb1twS5HRGTKUTgLcd50aqYMd2pqztnpbejbThQRXBGzCACXy5KbXU3NREbOMjIgMvK959Ah7t6z7qWzv5Ofb/15sEsREZlytH1TCBsachoCLr3Us/NT6vbgNi7as0oDW9g0dmSombKBw3w4ZhHJrrjjx2fkHqNy7xkArPNg26ex3JCVSOffXuCFLXP8UutUtmLGCs6deS4/2PwD/uGsfyDCFRHskkREpgyNnIWwQ4egr8+LTs36PXRmFOGOigloXdPZ+t6tJJho1sa8/w81L6ea1rZ0enriTnHl+Fqzk0k9FPodmyPuO/s+DrQc4Lm9zwW7FBGRKUXhLIR536m5R/PNTmP3YC27Bmu4PGYRcSb6fZ/l5Q43BUxg3llrTjJJxxpw9Q9MqM7p4roF11GQXMD3/va9YJciIjKlKJyFsJFw5tHImbXOGmcKZ2Oy1rK+dyupJo4Lok9+7Dgj9ygA1TUFPn9Ha3YyLrcl5WjoboA+WqQrks+u+iyvHHyFHXU7gl2OiMiUoXAWwiorneWz0tLGPze+rYbovk41A5zCtsEqDg41cVXsEqLNyVM1M9IbiYnu5VjNTJ+/ozXb2ZUh9VDoboB+ok+u+CRxkXFalFZEZBSFsxDmU6emRs5O4rZunundSo4rmdVRJWOe43JZZuQdnVA4a8tOAsIrnKXHpfPRMz/KL7f/koau8BgxFBEZj8JZiLLWCWfebNsECmdjeWvgIDXudq6NPZMIc+p/Mvl5RzlWPRNrffuewZgoOnPSwiqcAdx79r30DfWxbsu6YJciIjIlKJyFqPp6aG31rlNzMDKGzjTfR35C0YAdYkPvdgoj0lkWefo/m/y8o3R1J9HWnurz97UU55FyOLzC2cKshawtXcuPyn5E/1B/sMsREQk6hbMQ5W2nZmrdHtqz5zh7Pclxr/fvocV2c13sMowxpz23YIbTFDCheWdFuc7Ima/Db9PUfWffR3VHNU/teirYpYiIBJ3+SxyivOrUZHgZjdx5gStoGuqxAzzXV86CyFwWROaOe35+nn/CWXR3Hwn1rT7fYzq6bPZlzM2Yy/fe+h42zIKpiMiJtENAiKqshIQEKPBgZQczNEhyw34OLrs+8IVNIy/27aLL9nFd7FKPzk9I6CI1pZlj1RMLZwCpB2voyvGgzXYa8HQu2fK85Tyx8wnuf/l+StNO3qXi7hV3+7s0EZEpSSNnIWqkU3OcJ3EAJDUexOUeVDPAKD0RbbzUV8mKqFkURmR4fF3+BDs2W0pnAJC+v9rne0xXqwtWExcZx8sHXg52KSIiQaVwFqK86tSsV6fmicqz/sgAQ1wTc6ZX1+XnHaWmbgZDQ7790+pNS6InLYm0A+EXzmIjY/nArA/wbu27NPc0B7scEZGgUTgLQR0dUFXleThLHV5GQ1s3OTqiGtib9jrnRpeSE5Hs1bX5M44yOBhNXX2ez9/fUpxH6sEan6+fzj5Y9EGstbx26LVglyIiEjQKZyGostJ59WYB2t74NPoSPH98F8q2Z/8eg4srYxZ7fe2s/EMAHDlW5PP3t5TmOY81w3BifGZ8Jstyl/GXI3/RshoiErYUzkJQebnzesYZnp1/fE9NTyaohbiWmKMcSvkb85o+RKor3uvrc7JriIrq50hVke81lMwguqs37Do2R1xUfBHdA928VfVWsEsREQkKhbMQVF4O0dFQenLD25hS6nZrvtmwbTnriXbHsbDxcp+uj4hwUzDjCEePFfpcQ0uJ0xQQjvPOAGanz2ZWyixeOfiKltUQkbCkcBaCysud+WaRHiyUEtXTTmLrMVpzPZygFsL2xW7nWNJ2FjZeTow7wef7zMw/xNGqQp+fSjaXjoSz8Jx3ZozhouKLqOmsoaKxItjliIhMOoWzEFRe7vkjzdRa5z9+LXkLA1jR1GexPJ25jriBFOY1XTShe80qOERPbwKNTVk+Xd+Xmhi2HZsjVuatJDkmWctqiEhYUjgLMR0dcOSI5+EsrUbhDGBHwib2x+1gccPVRNqYCd1rZv5hgAnOO8sL63AWFRHF+YXns7NhJzUd4TmCKCLhS+EsxOza5bx6Hs52MRQZTUdmceCKmuLcDLE+Yx3Z/QWUtpw74fvl51Xhcg1xdCIdmyUznMeaYTzn6oLCC4hyRfHigReDXYqIyKRSOAsx3nZqptbsojVnHjYifHfy2pz0EtUxB7mm6S5cftjRLCpqgBm5VRMaOWsuHe7YrGuZcD3TVXJMMmtmruGtqrdo6QnfPwcRCT8KZyGmvBxiY6HYw4GwtJoKWsP4keaA6WdDxs+Y1TuP5Z0f9Nt9Z+Yf5khVkc8DX+G8jdNol5Rcgtu6efmg5p6JSPhQOAsxI52aERHjnxvR30NS08Gwnm/2RsoGmqJqua7pk7j8+M+hcOZBOjpTaGlN9+n65tn5AKTvrfJbTdNRVkIWK2as4C9H/kJrb3iu+yYi4UfhLMTs3OnFI8263RhrackLz2U0ul0d/DH9MRZ0r2BB90q/3rto1n4ADh72cLG5E/QnxdORl0HGnvAOZwCXll5K72Avj5Q9EuxSREQmhcJZCGlthWPHvJtvBoTtY83n0/6XblcHNzTcg8G/uyMU5B8hMmKAQ0d8C2fgjJ6l71M4m5UyiwWZC/jeW9+jd7A32OWIiAScwlkIGenUXLTIs/PTqnfhdkXQlj0ncEVNUU2RtbyS+jvO6biUmf3+//1HRQ5SkH94QuGsaW4BqYfriOgb8GNl09Olsy+lrquOX277ZbBLEREJOIWzEOJtp2ZabQVt2XNwR0YHrqgp6pmM/8YA1zTdFbDvKJp1gMNHi3G7fRuVa5pTgGvIHdbrnY2YnzGf5XnL+dbGbzHkHgp2OSIiAaVwFkLKyyE+Hgo93NYxtWZXWG7bdDhmN5uTX+RDrTeRNpgdsO8pLtxPX38sNbX5Pl3fNLcAQPPOcLZ0+pdz/4W9zXt5pvKZYJcjIhJQ4bu4VQgqL4eFC8HlQeR2DfSRUr+Xg8tuCHxhU4jF8lTmj0gaTOWyltsC+l2NTZkAvPDqFcwu3uPZRQ3OI9bzr6+kvSCLgdjosO/YHHHDghsoSSvhoTcf4voF12OMf+cJiohMFRo5CyHe7alZics9RHPBksAWNcXsSNjEnvitXNH8MeImsLm5J5IS24mO6qPJxz02cblonp1PhsIZABGuCP5p9T/xdvXbWvdMREKawlmIaGmBmhrPw1nGse0ANOcvDmBVU8sQgzyd8Qg5/TM5v+2qgH+fMZCR3kBjs4/hDGieU+CMnIXxNk6jfXzZx8lPyuerr30Vqz8TEQlReqwZIrxtBkiv2s5gZExYdWq+mfwcNTGHuaf6QSIm6a9+ZkY9O3Yto38giugo77sum+YWsGD9X0ioa6Er17cFbUNJbGQsXzzvi3zmuc/w4oEXWVu6NtgliR+s27LOL/e5e8XdfrmPSLBp5CxE7NzpvHoczo5tp2XGGWGzp2av6eYPGT9nds9izuz6wKR9b3ZmLWBobPKt8aBpzkhTwFE/VjW93bXsLmYmz+Qrr31Fo2ciEpIUzkJEeTkkJsKsWZ6dn1G1neb88Jlv9ue0J2iPbObGhr/3+4Kzp5OR0YAxbhoac3y6vmluAW6XIbPyiJ8rm75iImP44nlf5K2qt3hh/wvBLkdExO8UzkLESDOAJw1sse31xLfXhs18s9aIRl5M+w0rOi6kuG9yd0OIihwkLbXJ53A2GB9La1EeWRWH/VzZ9HbnsjuZlTJLo2ciEpIUzkKAtd7tqZl+bAdA2HRqbsj4GUNmkOsagzMfJTuzjsbmbIbcvv1za1hYSNauw2oKGCU6IpoHznuAzcc28/y+54NdjoiIXymchYDaWmhogDPP9Oz8kXDWFAaPNY9G72Vj8vN8sPU6sgZnBKWGrMw6hoYiaWnJ8On6xvmziG9qJ76h1c+VTW8fW/oxilKLNHomIiEnoOHMGHOZMWa3MWafMeb+MT6PMcb8ZvjzvxljioaPFxljeowxW4d/PRLIOqe7bducV0/DWcax7XQn59CbHLjV8acCi+XJrB8S707iiuY7glZHVmYdgM+PNhsWOls+ZO3So83RoiKieOC8ByirLuPZPc8GuxwREb8JWDgzxkQADwOXAwuBW4wxJ074uQtosdbOBv4TeGjUZ/uttUuHf306UHWGgq1bndclHg6EpVdtD4v5Zu8mvsGe+K1c03QXCe6koNURF9tDUmIb9Y25Pl3fNHcm7giX5p2N4aNnfpSStBK++rrWPROR0BHIkbOzgH3W2gPW2n7gCeCaE865Bnhs+OengA8Z7cnitW3bnP0009LGP9cMDZJWUx7ynZr9po+nMn9EQV8p57VdGexyyM6qpb4hF7f1/q/3UGw0LSUzyFQ4O0lURBT/ev6/8k7NOzxd8XSwyxER0gpPLgAAIABJREFU8YtAhrN8YPTiTFXDx8Y8x1o7CLQBIxNzio0x7xpjXjfGnBfAOqe9rVs9f6SZWltJ5EAvTQUeXjBNvZT6JE1Rtfyfhs/iIiLY5ZCTXU3/QAwtrb4tJNuwQE0Bp/KRJR9hYdZCvvDyFxgY8n6hXxGRqWaqNgTUALOstcuAzwOPG2OSTzzJGHO3MabMGFPW0NAw6UVOBd3dsGcPLF3q2fmZR7YA0FC4MoBVBVdLRAN/Sv9flnWez7ye5cEuB4DcrBoA6up9a0poWFhIXGsnibXN/iwrJES6Inno4ofY27yXn7zzk2CXIyIyYYEMZ8eAmaPeFwwfG/McY0wkkAI0WWv7rLVNANbaLcB+YO6JX2CtXWetXWmtXZmV5fv+hdPZzp3gdns+cpZ1eAsDMQm05c4LbGFB9EzmOoYY4oaGe4JdynFxcT0kJ7VQV5/n0/WNC4abAsoP+bGq0HHFnCu4oPACvvraV+no6wh2OSIiExLIcPY2MMcYU2yMiQZuBjaccM4GYKSN7kbgFWutNcZkDTcUYIwpAeYABwJY67Q10qnp8cjZ4TIaZy7DuoL/qC8QDsSW81byn7mk9f8EbemMU8nNrnHmnbm9n3fWNCefwehIcnbon8FYjDF885Jv0tDdwDff/GawyxERmZCAhbPhOWSfBV4AKoAnrbXlxpivGWOuHj7tp0CGMWYfzuPLkeU2zge2G2O24jQKfNpaq+c5Y9i6FZKSoKho/HPN0CCZR7fSOGtFwOsKBjdufpP1A1IGM7is+bZgl3OSnOxqBoeiaGr2fpTXHR1F44JCcrbvD0BloeGs/LO4edHNfHvTtzncquYJEZm+AjrnzFr7nLV2rrW21Fr7jeFjX7bWbhj+uddae5O1dra19ixr7YHh47+z1p4xvIzGcmvtHwJZ53S2dauzhIbLg/8lU2sriBzoCdn5ZhuTn+dQbAXXNd5NrI0PdjknycmqBSy1Ps47qz2zlMyKI0T09vu3sBDyzYu/icHwTy/+U7BLERHx2VRtCBAPDA7Cu+/CSg+zVtZhpxmgsTD0Rs46Xa08nfkIs3uWcE7HpcEuZ0wxMX2kpzVSU3ti07Jn6s6cTcTgkNY7O42ZKTP5wge+wFO7nuLVg68GuxwREZ9EBrsA8V1FBfT0wKpVnp2fOdIMkHNSb8W0tz5zHT2uLm6t/xyGqbtU3ozcKsorzqSvP5qYaO9GwOqWlACQs20/tcvmBKK8KW3dlnUenZcWl0ZGXAYfWf8RHjjvASJGza+8e0Vw9lcVEfGGRs6msbffdl49Hzkro3Hm8pBrBtgfu5O/pvyRD7XeRH5/SbDLOa0ZuVVYXNTWef9oszctidZZOeRu07yz04mOiObGhTdS3VHNq4c0eiYi04/C2TRWVgbJyTDHk0GU/7+9O49vur4fOP76JE3TNmnTk96UWlqg3HLIISCHCN5ueM2LeSCCzs2NOf05r+k8ps5NnQpe0zEUEBUU5RCUa8jZclMobel9X+mRNMnn90cCcrWk0DRt+Twfjzy+afr5tO9+8m3yzuf7OWw2wvLSu9wlTTs2FkT8neCmCK4u997+me4KCy3FV2ehsCjunOoXD0xyTgpQi9G2aHDUYPp168fSg0upaFBziRRF6VxUctaJbd0KQ4a4NxmAPXu65GSAH01fkut3mJvKHuyQkwBOpdFIoiLzKSiKO6f8qmhgEn7VdZhyits+uC5ECMGt/W5FIlmwZ4Had1NRlE5FJWedlMXiXOPM3fFmbNoEQHHSKM8F1c6qteV8FfY+qXXDudg8ztvhuC0mKo+GRgNV1W5shnqK4oFJAOrSphvCA8K5JuUadhXvYmfRTm+HoyiK4jaVnHVSu3dDU5P7483YuJE6UzS1YT08GVa7Whz+L2yiiVtKH+7QkwBOFR3l3Cgjv7B7q+tW9YiiISSQmG0H2zqsLmli4kTig+JZsGcBZqvZ2+EoiqK4RSVnndS2bc6j2z1nGzdSnDQaROdJYlqyJ+AntgSt5orKW4lsOrfxW94S4F9PWEgpeQWtT84QgoKhvZzJmbpUd1ZajZa7Bt6F2Wrm0z2fejscRVEUt6ilNDqprVshLAwSEtwonJ8POTkUD3/Y43G1h0ZRz/xurxJl7c7Uytu9Hc45iYvNIX3PUOobAgjwr//5G4cOOY/r1zVbNz9ES1JpFabPv6Y60nR6gTFj2zjazi3eFM/VKVez9OBSFu1dxI19b/R2SIqiKC1SPWed1MaNMGqUmx1hrvFmRUmjPRtUO1kS/i6VPiXcWfwoOqn3djjnJD7WuZDsufSe5SdHAhB7qKhNY+rKpiRNoYepBw988wBFZtVuiqJ0bCo564RKS+HgQRjtbq61cSP4+1PWfbBH42oPGX7p/Bj8JeOrfklSYz9vh3POggKrCDRWk5fvTtfnyWrDjNSGGIjNUDM23aXVaJk+aDr1TfXcvuR27A67t0NSFEVplkrOOiFXR5j7ydmmTTBsGFKr81hM7cEqLHwS+TLhTdFcX36vt8M5L0JAXEwOxSXRWJta+bwIQX5KFNGZxQiHwzMBdkHRgdG8MfUNvs/6nhc3vOjtcBRFUZqlxpx1Qhs3gq+vmzM16+udG3DOmePxuDxtWeiHlPjm8du819BL/9O+v856yAtRnbv42Bz2Zwwgv6A7iQmtWxojPzmS3j9lEpZfSVl8mIci7HruHnw3a7LX8OQPTzI2YSxjEsZ4OyRFUZTTqJ6zTmjDBmdi5ufnRuHNm507pLvdzdYxZesPsCrkMy6tvoo+DV1jl4PwsBIC/M1k57Z+y6mCnlEAxGao8VOtIYTgnave4aKQi7h58c0U1BZ4OyRFUZTTqOSsk2locC6j4XautXo1aLUwtvPO4GsSVj6OfAmTPZRpZbO8HU6bEQIS4o9QWBSHxerbqroNJn/KYkKI36+Si9YK1Aey5KYl1FhquOGzG2i0NXo7JEVRlJOo5KyT2bbNufhsq5KzESMgMNCjcXnS0tD3ydcf4baS3+PvMHo7nDbVo/sRpNSQm5fY6rpH+8YQlVWKvs7igci6tv6R/fnPL/7DlvwtzFg2Q23vpChKh6KSs05mwwbncZQ7uzBVVjqzuUmTPBqTJ+33387K0E8ZW3UtA+q6ztZTx4QElxNorD6nS5s5fePQOCTxB1Tv2bm4vvf1PHvZs3yy6xOeW/ect8NRFEU5Tk0I6GRWr4b+/SEiwo3Ca9c6V5HvpMmZWVPNR1F/JcranRvLZns7HI8QAnp0z2T3vsGnL0h7FqXxYdQH+pGwN5/DQ1rf86bAE2OfILMykyd/eJJIYyQzhszwdkjKCewOO0XmIvJr8ykyF1FWX0Z5Qzm1llrqm+pptDVil3aklPhqffnjqj9i8DUQ4hdCqH8oUcYoYoNiiQ+Kx+jrXq+7OgeUjkAlZ51Ifb2z5+zBB92ssHo1GI1wySWnf29d8yvQdwQSySeRf6NWW8Xsghfwle7MfuicnMnZxWTl9KRv713uV9QIjqbGkph+FGF3ILWqI7y1hBDMu2YepfWlPPDNA4QHhPOLPr/wdlgXLKvdSlZlFhnlGWRUZJBVmUWTowkAgSDEP4Rw/3DiguIw+Brw0/qh0WgQCKx2KxabBXOTmcqGSnKqc07aTzXaGE1yWDKp4an0ieiDn0/XfU1ROj+VnHUiGzaA1QqXX+5mhdWrYdw40HW+9c02Bn1DmnE9vyx9gO6WFG+H41FBgTV0Cy8kMyuF1F67WrX96dHUWHr/lEnUkRIKk6M8F2QXptPqWDhtIZd/cjm3LL6FhTcu5Pre13s7rAtGQW0Ba7LWsLNwJ0eqjmBz2BAI4oLiGJswlgRTAnFBcUQaI/HRtO4tq8ZSQ35NPtnV2RwuP8yW/C2sy1mHj8aHPuF9GB47nIGRA9H7dM6dRpSuSyVnnciqVc71zca4szTT0aPOfRpndb7ZjcW6XD6LeIPe9UOYVHWTt8NpF0mJGfxv6zhKyyLpFuH+yv95vaKw+WjosSdPJWfnweBrYPlty5nynyncuOhGFvxyAdNSp3k7rC6rsLaQz/d/zsK9C9lwdAMSSWxgLON7jCclLIWeoT0J0AWc9+8J0gcRFBFEn4g+0NN5mfRwxWHSi9PZUbiD3SW70Wv1DIsdxoQeE4gNim2Dv05Rzp9KzjqR1audEwEMBjcKL1/uPE6e7NGY2pqNJt6P+gs66cv0osfQXCBzVrrHZbN150gys1NalZzZ9DryesdwUfpRNl93MVJzYbSXJwT7BbPyjpVcOf9Kbll8C3Ovmcvdg+/2dlhdRrG5+HhCti5nHRJJv279eOayZ5BIooye/3Ch1WjpFd6LXuG9mJY6jcMVh9mct5mf8n5iw9EN9ArrRZQxiquSr0Kr0Xo8HkVpjnol7yRKSiAtrRVj+7/8Enr2hD59PBpXW1sU8RY5fge5o3gOIXZ3Zj10DT4+NnrEHyEnNxFrK9c8yxycgKG6gagjpR6K7sIRpA/iu9u/Y+JFE7ln6T08/v3jOKTaIutcldSV8M62d5jw7wnEvBbD7OWzKakr4alxT7F31l52P7CbP4/7c7skZqfSCA0pYSncOfBOXpz0Ijf0voGSuhKu+/Q6Ut5M4e2tb2O1W9s9LkUBlZx1GqtWOY9ujTerqYE1a+D662nVACYv2xK4ih+Cv+DyypsZXNd5F809V8k992O368jMat0Yu5y+cTT5aum5I9szgV1gjL5Gvr71a+67+D5e2PACNy++mRpLjbfD6jRK60qZu30ukz6eRPSr0TzwzQMU1BbwxJgn2PPAHvbN3sdTlz1FakSqt0M9zuhrZErPKTw/4XkW3biISEMks5bPIvmNZN7b8R5N9iZvh6hcYFRy1kl8+SVERbm5n+a33zpXqr2+8wxqLvDN4pNur9CzYQA3lF2YU9lDgyvoFl7IwcOpOBzuJ9U2vQ85/eJITD+Kxmb3YIQXDp1Wx7tXv8vLk15myf4lDJ07lLSiNG+H1WGV1Zcxb/s8Jn8ymehXo7n/6/s5Wn2Uxy99nF0zd7F/9n6eGf8Mfbv19XaoLdJqtExLncbGuzey4vYVRBmjuG/ZffR5qw8fp3+M3aH+v5T2oZKzTqChwZlvXXcduDWk6MsvnQuhjRjh8djaQp2mhrej/w8/RwAzCp9GewEPheyVvI+6+kB27b24VfUOD+6BX72V2INqr822IoRgzug5rL1rLXVNdYx4bwSvbHoFm8Pm7dA6hILaAv619V9M/mQyUa9EMePrGWRVZfHo6EdJuz+Ngw8e5C8T/kL/yP6ITtSDD87nfnLSZDbfs5llty4jSB/EXV/excB3BrIyc6W3w1MuACo56wS+/x7q6uCGG9wobLHAN9/Atdc699Ts4OzYmBf9NOW6YmYW/gWTPczbIXlVXEwOAQFmvv9xSqvq5fWOpjHAl+QdWR6K7MI1NmEsafenMaXnFOasmsOI90aws3Cnt8Nqd1JK9pfu56UNLzHivRHEvhbL7OWzyanOYc6oOeyYsYOMBzN4fuLzDIwa2OkSsjMRQnB1ytVsm7GNRTcuosHWwBX/uYIr51/JvtJ93g5P6cJUctYJfPEFBAXB+PFuFF67FmprO80lzcXhb7M/YDu3lfyepMZ+3g7H6zQaSe/kPWRk9iEzK9nteg4fLYcv7kFiei76KvPZKyitEmGI4Iubv2DhtIXk1uQyZO4Qpn85naPVR70dmkdVNFSwaO8i7l16LwmvJ5D6r1T+9P2fsEs7z094nr2z9nJg9gFemPQCg6MHd4mE7Ew0QsO01Gnsm7WPVy5/hU25mxjw9gBmfzOb0jo1EUdpexfu9aNOwmaDpUvhqquca5yd1fz5EBzcKbZsWmv6gjUhi5lYeSOja670djgdRvJFB8k4nMryVdfx0IxX3K63f1Qy/TZk0GvZJnbd0bmWUOkMhBDc2PdGJl00ib+u/ytvbHmDT/d8yq8H/ZrfjfwdKWHuT+SYu32uByN136lbFeXX5LMpdxMbczeyMXcjOwp34JAOTHoTky6axBNjn2Bqz6nEm+KP1+kof0tbOdvfE6gP5MlxT7Ls4DLe2f4OH6V/xDUp1zAuYdzx5TfUFlDK+VLJWQf3449QVubmJc3aWliyBO64A/w69tYk6YaNfBbxTwaYR/HLspneDqdD8fGxMemyb/nym5vJye1BQny2W/Uqo4MpSoyg9xfr2XXbJDcHKCqtFeIfwt8m/40Hhz/Ic+ue44O0D3h3+7tcmXwl0wdN5+qUqzvF1kA1lhpWHF5BWlEaacVpbM7bTHZVNgD+Pv5cEncJfx77Z65IuoJhscNavTp/V2b0NXJr/1sZ12McC/cu5LO9n7H+6Hpu6nsTfcI71/JFSsek/ts6uI8+ApMJrr7ajcKff+7cgPPOOz0d1nnJ0u9jXtQzJFhSuLfoyQt6AkBzLrt0NSvXXM3XK37B7Htfc7vevlHJTJi/iZhtBykYrt4kPCkhOIF5187juQnP8dbWt3hvx3t8c+gbgv2CuSr5Kq5MvpLJSZMJDwj3WowO6aCioYJiczHFda6buZj82vyTlgdJMCUwNGYoD1/yMKPjRzMoahA6befb9q29xQTG8PAlD5NenM6ifYt4ffPrDI4azOSkyfQI7uHt8JROTL0rdmA1Nc586847wd/fjQoff+xceHbkSI/Hdq7yfY/wRuyjmGxhzC54Eb105w+78Pj7NTB5wtd8+c3NZGT2IiXpoFv1sgZ2p/HrdPou+kElZ+0k0hjJs+Of5alxT7Emaw3zd89n+aHlzN89H4Dk0GRGxo9kQLcBpEakkhyWTKOtEb1Wf85jtKSUNNoaMVvNmK1mKhsrqWyodB5d96saq6hsrDxpEV0/Hz8iDZGkRqQSHxTPrGGzGBg5kBD/kDZpiwuREIJBUYPoG9GXVUdW8e3hb+nzVh/+OOqPPHrpo22yDZVy4VHJWQe2aJFzGY1f/9qNwjk5zskAzz7bYReeLdbl8Xrs79FJX36b/ypBdvWG0JKJY7/jx42T+Hzprfzpt0+79bTadVr2/2Isgz76DlN2EdU91H6b7UWr0XJ50uVcnnQ5DulgW8E21mat5X95/2PF4RV8nP7xSeV1Gp1z70d9EAadAa1Gi0Zojt8EAqvDitVupcnehNXuvG+2mqlrqjvjzgU+Gh9C/UIJ9g+mZ2hPQvxCiDBE0M3QjUhDJEH6oJMSwst6XObpZrlg6LQ6rky+kpFxI0kvTufZdc/yYdqHvDr5VaalTuuykyUUz1DJWQf20UfQuzcMH+5G4Q8+cB5vv92TIZ2zMp9CXo99BAd2fpf/dyJsMd4OqcPz9W3i2qmL+feC+9m2cwTDLt7sVr3dt06g/39XM+jf3/HjU9M9G6RyRhqhYXjscIbH/vzPW1Zfxv7S/WRWZrLs4DJqrDXUWGqotdRSY61BSold2nFIBw6HA4lEp9Xhq/XFV+OL0deIXqvH4Gtw3nTOo9HXSIhfCKH+oRh0BpUEeFmIfwj//eV/eWDoAzz07UPctPgmxiWM459T/8mAyAHeDk/pJFRy1kHt2QMbNsCLL7rREdbYCG+/7RyYlpjYLvG1Rokuj9dif4dF08Dv8l8jxtrD2yF1GiOGbmDNuitYvPRX9E9Nw8+v8ax1GkOD2H/DGPou+oHtM67BHH1hrx3XUYQHhDMmYQxjEsaoPRsvAGMSxrB9xnbm7ZjHE2ueYPC7g5k5ZCbPjn+WsAD1P6m0TE3n6qBefRUCAuC++9woPH8+lJbC737n8bhaq0h3lFfjHsaqsfBI3t/pbmndvpEXOo1GctuNH1JdE8xX305zu96u2y9HCsHAj9Vq5oriLVqNlplDZ5LxUAazhs7ine3vHN9UXW0FpbREJWcdUH6+M9+65x4IDT1LYSnh73+HAQPcXKW2/WTp9/O3uAexY+f3ea8Tb3V/UVXlZ4kJmYwdtYa16yeTk9vDrTp1UaFkXDOS3l+sJyi3xLMBKorSolD/UN648g3S7k9jQOQAZi2fxZC5Q/gh+wdvh6Z0UOqyZgf0xhtgt5+5I2zuKesjxu5bzVV79/LDXR+SMa/jjDXZE7CZd6OfIsgewm/yXyGyKc7bIXUq6zadnGh3Cy/ET9/AW+/9nqmTvkKrbf5T99gxzu9tu/9aklZs5ZJ/fs6qvz3g0XgVRTm7/pH9WXPnGj7f/zm/X/l7xv97PFN7TuWFiS8wMGqgt8NTOhDVc9bBlJU5h49Nm+bG8DEpGfL109SZojk87NZ2ie9sJJIfTF/wVszjRFrj+WPuWyoxawO+vlZGDFtPdU0IabuHulWnIdxE2vQpJK5NI3qbe0txKIriWUIIpqVO48DsA7w86WU2521m8LuDuX3J7WRVqr1xFSfVc9bBPPusc5Pzp58+e9mEXcuIytzE+tvewaHTezy2s7HRxIJur7PB9DX9zSO5t+hJ/KRa46etxETlk9JzLwcO9SM6Ko+YqPyz1tn9q0n0WbKeUa8u5IuPH8OhU//y56srbVfUlf6WzsZf58+c0XO49+J7eWnjS/zjp3+wcO9CZgyZwZ8u/RNxQepD7YVM9Zx1IIcOOXvN7r0X+pxl/VDhsDPsy8ep6pbMgdF3t0+ALSj3KeLVuIfZYPqaqRW3M6vwryox84DB/bcSbCpn4+bxmOuMZy1v9/Nl0x9uJuxQHoPfX94OESqK0hoh/iG8OOlFDj90mOmDpvPu9ndJ+mcSM7+eeXw7LeXCo5KzDkJKmDMH9Hr3es2S//cxoQV72Xr980gvb7OSZljPc93vocA3mxmFT3N9+X1o1KnlET4+dsaO+h4JrN80EZtNe9Y6OZcNIuOqEQz+8Fsi9mZ7PEZFUVovNiiWudfM5fBDh7l70N18mPYhyW8kc89X93Co/JC3w1PamXoH7SA++wy++gqefBKizrKou39NMSM+n0Nx4giyBv+yfQI8g3pNLf/u9iJvxzxBRFMsTxx9jyHmjjVjtCsKNNYyaviPVFSFsWnLZTjk2SeCbPrDzdSHmxj/5AfozA3tEKWiKOciITiBt69+m8zfZDJr6Cz+u+e/9HqzF9cuuJY1WWuQUno7RKUdqOSsAygqgtmz4ZJL4JFHzl5+1KcPobPU8uOd74PGO09humEjzyRMZ3PQSqZU3MYfc99Sq/63o7iYXIYM/Inc/B7sSB/O2V6vrYEBrH3m1wTllTLhifcR9tO3/lEUpeOIC4rjH1P/QdbDWfx57J/ZnLeZiR9PZOA7A/lg5wc02s6+ILXSeanRwV5mt8P06c5JAB99BD5neUYSty8mafsitlz3PFUxqe0R4klKdfl8FvEGuw3/I8aSyAMFz9PD0vu8f+46q+q2b63eKXsx1xs5eKgfvjorA/rubLF84dBebPrDzVz60gKGv7mEnx52f1FbRVG8I8oYxTPjn+GxMY+xYPcCXv/pde5Zeg9/WPkHbut/G3cPvpvB0YO9HabSxlRy5mWPPgorVjjXL+t9thxn/37GfXwPpd2HkH7FnHaJ75habRXfhvyHH01fosWHaaWzGF/1C3zw7ni3C92QgT9ha9Kxe9/FCCHp1yetxfL7bryMkMwCBn6yCqvBn533XtVOkSqKcj78fPz49eBfM33QdH7I/oF5O+Yxb8c83tz6JgMjB3L34Lv5Vf9fER4Q7u1QlTagkjMvmjvXuU3Tgw+6sU1TRQVcey02nR8rH1jSbpMAarVVrDF9zvchi7AKCyNrruD68vsw2dXecB2BEDB86EYcUsOuvUOwWPWMcWxq8Wr3pjm3oKu3MOydpWjsdrbPuMaNDVwVRekIhBCMTxzP+MTxVDZUsmDPAj5M+5CHv3uYR1Y8wvjE8UzrM43re19PpDHS2+Eq50glZ17y3ntw//0wdSq89tpZCtfUwHXXQU4Oq367lrrQ7h6Pr0iXw5rgJWwKWk6TxsrFteO4tvxuopt6ePx3K62jEZKRw9ah97Vw4FA/5j0WwF1P/YBfgO2M5aVWw49P3YXUahgy7xuC8spY93+3Y/fzbefIFUU5HyH+IcwaNotZw2axq3gXn+35jMX7FzPzm5nMWj6LMd3HcEPvG7ii5xX0CuuFUB/COg2VnLUzKeGll+Cxx5yJ2ZIloGupE6yiAqZMgZ07Yf58iqtGeyw2i2gg3bCR9aZlZASkoZU+jKiZzOTKW4hqSvDY71XOnxBw8cCfCAioY+faYRRmXc/Ml1cR1aP6jOWlVsOPf76Dmthwhr67jJDMAtb+5W4qk9SkDkXpjAZEDmBA5ACem/Ace0v3snjfYhbvW8xvV/wWVkB8UDyTkyYzOWkyExMnEhagrn50ZKKrTMsdOnSo3LZtm7fDaFFVlbO3bOFCuPlm5wQAP78WKqSnOwtmZcGiRXDttaftrXnO1q0DnMth7A/YRrphI2nGDVg0DYQ1RTG2+lpG1UwlyH62ndfbKJwOOCFg7Ki151X/1P0x20vE+Ejee3wilgYd1z2wlYm37kGjbf7/PH7DbsY/9SG6ukbSpk8h/a4rsPl7f8cJpWNbt+TcJwKN/cWBNoxEac6MITPIrspmZeZKVmauZPWR1VRbnB/Yeof3ZnT8aEbFj2JU/CjVs+YFQojtUsoz7senkrN2ICV8/jn85jdQXAwvvOBccLbZ/wOrFd58Ex5/HEJDYcECGDcOOH3j89ZySDt5tl3sOfAv9hp+4ojfPhzCToA9kIvNYxleeznJDQPbfRFZlZy1nbGj1lJdHcx/Ft3Nrr0XEx+bzbTr/kvv5H3N1vEzNzLiqx2kbMui3uhH+sRUDjxyF02Glj49XGDWrzv/nzFm7Pn/jA7CneTM1qShodaX+lo99WZfrA3OywQ9BxWh0Uj8DE2EdKsjJNJMcLc6dL5eXOLlfJ9fKZ3PbwdKcGYMmXHS1zaHjS35W/gx+0c25m5kU+4mKhsrAQj2C2ZQ1CAGRQ5iYNRABkUNIjUiFV+tGu7gKS0lZx69rCmEmAL8A9AC70kpXzzl+3rgY2AIUA7cLKXscc8tAAANnklEQVTMdn3vMeAewA78Rkq5wpOxeoLNBl9/Dc8/D9u2waBBsGwZDBnSTAWLxZnFPfkkZGbC1VfDBx9ARMQ5/X6HdFBuzyK7aevxW27TDiyyDsKhe2MKV1T+in51l5DY2AetusrdZZhMVcy65zW2pV3CF8tu4e//epyeiQe5fPxy+qemodXaTyrfaPTjh9tGsX9kT4Z8t5uRX+1g6Mq9HJ4yjMNXDKdoUE+kz9l3I+jqfCw2AivMBJWbCSw/dqwlqNxMQHUDGodESIlwOD/0WgJ8aQzQ02jUYzHoqd1WTHV8N6q7d6O6eyR13YK9tlZhW5IS6mv1VBYbqCw2UllsoKrESG2l/xnLb1vZ84yPd4uvJi6lnPiUcuJ7lRHfqxxTeL138x0p0ddbCSqrxVRai6mslqCyWoLKzOjrLegsNnSWJnRWG1IswOavx+bni83Pl0aTgbrIUMxRzlttdCjV3SOpiYvwyhhPH43P8Z4ycL5HZJRnsCl3E1vyt5BenM7cHXOpb6oHQCu0JIYkkhKWQq+wXqSEpdAztCfxQfHEm+IJ0Kkt+jzFYz1nQggtkAFcDuQBW4FbpZT7TigzCxggpZwphLgFuEFKebMQIhVYAAwHYoDVQIqU0n7q7zmmo/ScNTTAhg2wfDl8+qlzgdnERHjiCbjjjjOML2tshPXr4ZtvYP58KCuDfv2cA9OmTj3tU9iJPWdSSupkBdX2AqodhVTYj1JsO0SJ7RAl9gxKbZk04Vyo0Ac98brB9NANo4duOH12GjrUjEvVc9Z2To27qUnHuk0T+P7HKZRXRhBorObigVvo23sXKUkH8Pc/fceAiJwy+hwxk7RyK7pGK40mAwVDe1E4OJnS1ASqEqOxBnbBF2aHA0NpNYH5pQTllxGYX0ZQfqnzmFVAQO3JC39a9T7UhAdSG2bEbArAodWAAIdGICToG6z41VnQ11nwNzcSWNWAj6XpeH2bXkdNbATV3btRcyxpcx3rI4I7VC/MMU0WLYVZwXy/oB+VJQaqio1UlhqO94oBGEMaCOlmJqRbHQaTBf9ACwGBFvT+zkkqI646hHQIGsy+VBYbqSg2UFEYSEFmCLkZYZTmmY7/rMCQBmKTy4ntWUFccgVxyeVEJ1ah0zf7dtB6UuL37aoTEi9nIhZUVoupzIy+wfpzUQHmYAPV4YE0GvU06X2w+epo0mshvju6Bis+jVZ8Gi34VZoxFldiLKpA12A54WcIzJEhx5P0E4+1MeFt9kHo1J4zd9gddg5XHCa9OJ3dxbvJqMjgYNlBMsozaLCd/FoR6h96PFGLD3LeIo2RhAeEEx4QTph/GOEB4YT4h6ARnf9DSFvzymVNIcRI4Gkp5RWurx8DkFK+cEKZFa4y/xNC+ABFQATwpxPLnliuud/XHslZTc3Jt8pKOHoUsrMhO1ty4ADs2QM2m0Cvl4yfZONXdzQycXQZmuwD2AoLsBcXYi8uwl5YgC3jAI3Zh2iUNhr9fWgcNZzGyRNo7NubRoeVGksN1ZZqqhqrqGqsotpSzd7MKhocVdTJcqrthdiwnhSjFh0R2iS6+SQT6ZNCpE8vEnRDiPXpj1ackBmua4NLNG1IJWdtp7m47XYNu/cNYsv20ezePxCr1XnJMiyklJjoPGKi8ggLLSPQWIPRWINxbC8CZB3xu/fTc0saCWl7CSspQovz0lNduInKi6KpjQmnITSQhjAT9WFBWEwGbHrd8d4Du955tOl1SI1AajQgBFLgTD7ONQGREqRESFzHn78WDgdaSxM+lia0Fqvr2IRPoxV9TR36mnr8quvwqzITUFqFsbgCQ3ElhpIqtLaf3/QdGuHs8YgNp0ZrozbMSE2YkdqwQGrCjFgCfFsX/+hLMZRUYcotwXS0hCDX0ZRbQlBeKZqmn2fYNul9qY0Jpz7CRF14MHURwTSEBmI1+tMU4I/F4IfV6I8twI8mfz0OnQ8OrQa7VovUanBoNUitFqlpvo0dDkGTxYcmixZrow9NFh+sFi0NZl/MVX6YK/2prfKjoshIeUEg5QWBVBQbkA7nG63Wx05wtzpCutUR3M1MSKTz/tkSp7ONOWsw68g7FEbuwVDyDoaRdziMgiOhNFmcvfsarYPQyFrColy3yFqCQuoxBjUSaKgjSG/Gnwb8acDP0UCArMdgrcVoriagxoy+uo6A8hoMrsTJWFxxUtLsEAJzqDMBqwk3UhMeSHVEINWuRNzRXPLU3GVrKdHX1BNYUOZ8vo8Wu27O519fW//z79ZqqI0Jp65bMPXhpuM3S5ABq8GPpgA9TQZ/532Dn/P/SqvF4aPFodXg8HE+/whxTslZcxzSQX5NPpmVmeRW55Jbk0teTR65NbnHv65oqDhjXY3QEOofSqh/KIG+gQTqA08+uu4H6ALQa/XoffT4+fg1e1+n0aHVaNEKbYtHjdCc8TGB6BDj67x1WTMWyD3h6zzgkubKSCltQohqIMz1+OZT6sZ6LlT3xMaC2Xz64z4+ElvgEQjJhJFbIX4Tlh4/8J1vPd8dAE59HfIB4l2342zAJji0CU7JU4y+RoL9gjHpTdhkMCZtNNGaVEyaaEzaGII1MZi00QRrYgnVdkcr1OVJ5XRarYNB/XcwqP8Ommw+ZGalkJWTREFhHPmF8ew72B+7/YRz580z/xwhHAgkolxCGc77OD/kuXP/VJIzv0ie6XFPlUWAdI2zlBrXA8JVthjn7YQPstKN/Ux/LnuOPQYWIMt18yKBgxgKSBBZDBE5JIps+vvspi97uIgjaEsdUArsba5NXJd6kRw7BbR/c/ycUB8v5kqsm+kwsKPhMD3ZxQB22QeQWZBETkEC2fTgf/Q6/vy58/f8VTzOQ+HvYo4KoTwljpyxAzDXVVATHujsCQ01NJ+AnQshsJgMWEwGyvqcMvNdSvyqzCclbUG5pRhKqui2J4uAsuqTEkd3NQYFQHXbJWcaoXH2kJnimy1T31RPaV0pZfVlx2/lDeUn3a+11GK2msmtyaXWUkuttZZaS+1pvXLt5ViiduqxT3gf0ma2vKi3R+PyYM/ZNGCKlPJe19d3AJdIKR88ocweV5k819eZOBO4p4HNUsr/uB5/H/hWSrn4lN8xAzh29vUCDrbxnxEOlLXxz1TOTLV1+1Dt3D5UO7cP1c7tQ7WzZyRIKc84qNyTXSz5nNw3FOd67Exl8lyXNU04Jwa4Uxcp5VygrRaXOI0QYltzXY5K21Jt3T5UO7cP1c7tQ7Vz+1Dt3P48OUJvK5AshEgUQvgCtwBLTymzFLjLdX8asEY6u/KWArcIIfRCiEQgGdjiwVgVRVEURVE6BI/1nLnGkD0IrMC5lMYHUsq9QohngW1SyqXA+8AnQojDQAXOBA5XuYXAPpyDsWa3NFNTURRFURSlq/DoyHEp5XJg+SmPPXnC/UbgxmbqPg8878n43OCxS6bKaVRbtw/Vzu1DtXP7UO3cPlQ7t7Mus0OAoiiKoihKV6BWhVMURVEURelAVHLmIoT4QAhR4lre49hjoUKIVUKIQ65jiDdj7AqaaeenhRD5Qog01+1Kb8bYFQgh4oUQa4UQ+4QQe4UQD7seV+d0G2qhndU53YaEEH5CiC1CiHRXOz/jejxRCPGTEOKwEOIz1+Qz5Ty00NYfCSGyTjinB3k71q5MXdZ0EUKMBczAx1LKfq7HXgYqpJQvCiH+BIRIKR/1ZpydXTPt/DRgllK+4s3YuhIhRDQQLaXcIYQIBLYD1wPTUed0m2mhnW9CndNtRjiXczdIKc1CCB2wAXgYeARYIqX8VAjxDpAupXzbm7F2di209Uzg61PXG1U8Q/WcuUgp1+GcMXqi64B/u+7/G+eLrnIemmlnpY1JKQullDtc92uB/Th32VDndBtqoZ2VNiSdju3PonPdJDABOJYsqPO5DbTQ1ko7UslZyyKllIWu+0VApDeD6eIeFELscl32VJfa2pAQogcwGPgJdU57zCntDOqcblNCCK0QIg0oAVYBmUCVlPLYhqQdYpu/ruDUtpZSHjunn3ed038XQui9GGKXp5IzN7kWx1WfHjzjbSAJGAQUAq96N5yuQwhhBD4HfiulrDnxe+qcbjtnaGd1TrcxKaVdSjkI544xw4HeXg6pyzq1rYUQ/YDHcLb5MCAUUMMhPEglZy0rdo0pOTa2pMTL8XRJUspi14uBA5iH84VXOU+u8SKfA/OllEtcD6tzuo2dqZ3VOe05UsoqYC0wEgh2bf0HzWzzp5y7E9p6iusSvpRSWoAPUee0R6nkrGUnbi91F/CVF2Ppso4lCy43AHuaK6u4xzWo931gv5TytRO+pc7pNtRcO6tzum0JISKEEMGu+/7A5TjH963FufUfqPO5TTTT1gdO+FAncI7tU+e0B6nZmi5CiAXAZUA4UAw8BXwJLAS6AznATVJKNZj9PDTTzpfhvPwjgWzg/hPGRSnnQAhxKbAe2A04XA8/jnM8lDqn20gL7Xwr6pxuM0KIATgH/GtxdioslFI+K4S4CPgU52W2ncDtrp4d5Ry10NZrgAhAAGnAzBMmDihtTCVniqIoiqIoHYi6rKkoiqIoitKBqORMURRFURSlA1HJmaIoiqIoSgeikjNFURRFUZQORCVniqIoiqIoHYhKzhRFURRFUToQlZwpiqIoiqJ0ICo5UxRFURRF6UD+H95EvIAyJUdSAAAAAElFTkSuQmCC;" vertex="1" parent="1">
          <mxGeometry x="60" y="70" width="615" height="357" as="geometry" />
        </mxCell>
      </root>
    </mxGraphModel>
  </diagram>
</mxfile>
